<?xml version="1.0" encoding="UTF-8"?>
<svg width="700" height="320" xmlns="http://www.w3.org/2000/svg">
  <style>
    .box { fill: #f4f6f8; stroke: #2b7cff; stroke-width:2 }
    .text { font: 14px sans-serif; }
    .title { font: 16px sans-serif; font-weight: bold; }
  </style>

  <rect x="20" y="20" width="140" height="50" rx="8" class="box" />
  <text x="90" y="50" text-anchor="middle" class="text">dataset.csv</text>

  <rect x="190" y="20" width="160" height="50" rx="8" class="box" />
  <text x="270" y="50" text-anchor="middle" class="text">Data Cleaning</text>

  <rect x="380" y="20" width="180" height="50" rx="8" class="box" />
  <text x="470" y="50" text-anchor="middle" class="text">Categorical Encoding</text>

  <rect x="190" y="110" width="160" height="50" rx="8" class="box" />
  <text x="270" y="140" text-anchor="middle" class="text">Feature Scaling</text>

  <rect x="380" y="110" width="180" height="50" rx="8" class="box" />
  <text x="470" y="140" text-anchor="middle" class="text">Model Training</text>

  <rect x="560" y="20" width="120" height="50" rx="8" class="box" />
  <text x="620" y="50" text-anchor="middle" class="text">Reports</text>

  <!-- arrows -->
  <line x1="160" y1="45" x2="190" y2="45" stroke="#333" stroke-width="2" marker-end="url(#arrow)" />
  <line x1="350" y1="45" x2="380" y2="45" stroke="#333" stroke-width="2" marker-end="url(#arrow)" />
  <line x1="470" y1="70" x2="470" y2="110" stroke="#333" stroke-width="2" marker-end="url(#arrow)" />
  <line x1="560" y1="45" x2="560" y2="45" stroke="#333" stroke-width="2" />
  <line x1="560" y1="45" x2="560" y2="45" stroke="#333" stroke-width="2" />
  <line x1="560" y1="45" x2="560" y2="85" stroke="#333" stroke-width="2" marker-end="url(#arrow)" />
  <line x1="560" y1="135" x2="560" y2="85" stroke="#333" stroke-width="2" marker-start="url(#arrow)" />

  <defs>
    <marker id="arrow" markerWidth="10" markerHeight="10" refX="6" refY="3" orient="auto">
      <path d="M0,0 L0,6 L9,3 z" fill="#333" />
    </marker>
  </defs>

  <text x="20" y="300" class="title">Pipeline overview</text>
</svg>